<?xml version="1.0" encoding="utf-8"?>
<!-- Generator: Adobe Illustrator 27.0.1, SVG Export Plug-In . SVG Version: 6.00 Build 0)  -->
<svg version="1.1" id="Layer_1" xmlns="http://www.w3.org/2000/svg" xmlns:xlink="http://www.w3.org/1999/xlink" x="0px" y="0px"
	 viewBox="0 0 22.6 7.6" style="enable-background:new 0 0 22.6 7.6;" xml:space="preserve">
<style type="text/css">
	.st0{fill:#FFFFFF;}
</style>
<g>
	<path class="st0" d="M4.6,4.1L4,1c0,0-0.3-0.7-1-0.7s-2.8,0-2.8,0S3.7,1.4,4.6,4.1z"/>
	<polygon class="st0" points="8.1,7.2 9.9,7.2 11,0.3 9.2,0.3 	"/>
	<path class="st0" d="M6.5,0.3L4.8,5.2c0,0-0.1-0.4-0.1-0.7c-1-2.1-2.5-2.9-2.5-2.9l1.5,5.6l0,0h2l2.8-6.9H6.5z"/>
	<path class="st0" d="M13.6,2.3c0-0.4,0.3-0.7,1.2-0.7c0.6,0,1.3,0.4,1.3,0.4l0.3-1.5c0,0-0.9-0.3-1.7-0.3c-1.9,0-2.9,1-2.9,2.2
		c0,2.2,2.5,1.9,2.5,3c0,0.2-0.1,0.6-1.2,0.6s-1.8-0.4-1.8-0.4L11,7.1c0,0,0.7,0.4,2,0.4s3.1-1,3.1-2.5C16.2,3.2,13.6,3.1,13.6,2.3z
		"/>
	<path class="st0" d="M21,0.3h-1.9l-3,6.9h1.8l0.4-1h2.3l0.2,1h1.7L21,0.3z M18.8,4.9l1-2.6l0.5,2.6H18.8z"/>
</g>
</svg>
